<?xml version="1.0" encoding="UTF-8"?><svg id="Layer_2" xmlns="http://www.w3.org/2000/svg" viewBox="0 0 527.45 40.42"><defs><style>.cls-1{fill:#243565;}</style></defs><g id="Layer_1-2"><path class="cls-1" d="m74.21,9.07h-1.65l-4.29,30.52h-1.65l4.29-30.52h-1.65l-4.29,30.52h-1.65l4.29-30.52H0l.22-1.65h86.58l-.22,1.65h-10.72l-4.29,30.52h-1.65l4.29-30.52ZM.66,4.12h86.58l-.22,1.65H.44l.22-1.65Zm.49-3.3h86.58l-.27,1.65H.88l.27-1.65Z"/><path class="cls-1" d="m92.91.82h1.65l-5.44,38.77h-1.65L92.91.82Zm3.3,0h1.65l-5.44,38.77h-1.65L96.21.82Zm19.14,22.27h-17.32l-2.31,16.5h-1.65L99.51.82h1.65l-1.98,14.02h17.32l1.98-14.02h1.65l-5.44,38.77h-1.65l2.31-16.5Zm-17.1-1.65h17.32l.22-1.65h-17.32l-.22,1.65Zm.44-3.3h17.32l.27-1.65h-17.32l-.27,1.65ZM121.78.82h1.65l-5.44,38.77h-1.65L121.78.82Zm3.3,0h1.65l-5.44,38.77h-1.65L125.08.82Z"/><path class="cls-1" d="m140.1,9.07h-1.65l-4.29,30.52h-1.65l4.29-30.52h-1.65l-4.29,30.52h-1.65l4.51-32.17h26.4l-.22,1.65h-18.15l-.93,6.6h17.32l-.28,1.65h-17.32l-.22,1.65h17.32l-.22,1.65h-17.32l-.22,1.65h17.32l-.22,1.65h-17.32l-1.04,7.42h18.97l-.27,1.65h-18.97l-.22,1.65h18.97l-.22,1.65h-18.97l-.22,1.65h18.97l-.22,1.65h-20.62l4.29-30.52Zm-5.94-4.95h26.4l-.22,1.65h-26.4l.22-1.65Zm.5-3.3h26.4l-.27,1.65h-26.4l.27-1.65Z"/><path class="cls-1" d="m191.03,9.07h-1.65l-4.29,30.52h-1.65l4.29-30.52h-1.65l-4.29,30.52h-1.65l4.51-32.17h26.4l-.22,1.65h-18.15l-.93,6.6h16.5l-.27,1.65h-16.5l-.22,1.65h16.5l-.22,1.65h-16.5l-.22,1.65h16.5l-.22,1.65h-16.5l-2.2,15.67h-1.65l4.29-30.52Zm-5.94-4.95h26.4l-.22,1.65h-26.4l.22-1.65Zm.5-3.3h26.4l-.27,1.65h-26.4l.27-1.65Z"/><path class="cls-1" d="m218.2.82h1.65l-5.44,38.77h-1.65L218.2.82Zm3.3,0h1.65l-5.44,38.77h-1.65L221.5.82Zm3.3,0h1.65l-4.29,30.52h16.5l-.27,1.65h-16.5l-.22,1.65h16.5l-.22,1.65h-16.5l-.22,1.65h16.5l-.22,1.65h-18.15L224.8.82Z"/><path class="cls-1" d="m254.66,25.35c-.55.11-1.15.17-1.7.22l-1.92,14.02h-1.65l1.92-14.02c-.55-.06-1.04-.11-1.59-.22l-1.98,14.24h-1.65l2.03-14.63c-6.21-1.92-10.12-8.3-9.02-15.89l1.15-8.25h1.65l-1.15,8.25c-1.15,8.19,4.07,14.85,11.66,14.85s14.68-6.65,15.84-14.85l1.15-8.25h1.65l-1.15,8.25c-1.1,7.59-6.76,13.97-13.53,15.89l-2.03,14.63h-1.65l1.98-14.24ZM243.55.82h1.65l-1.15,8.25c-.93,6.38,3.02,11.55,8.8,11.55s11.16-5.17,12.1-11.55l1.15-8.25h1.65l-1.16,8.25c-1.04,7.26-7.31,13.2-13.97,13.2s-11.27-5.94-10.23-13.2l1.15-8.25Zm19.25,0h1.65l-1.15,8.25c-.77,5.44-5.39,9.9-10.23,9.9s-8.14-4.45-7.37-9.9l1.15-8.25h1.65l-1.15,8.25c-.66,4.56,1.98,8.25,5.94,8.25s7.7-3.68,8.36-8.25l1.15-8.25Z"/><path class="cls-1" d="m277.27.82h1.65l-5.44,38.77h-1.65l5.44-38.77Zm3.3,0h1.65l-5.44,38.77h-1.65l5.44-38.77Zm3.3,0h1.65l-5.44,38.77h-1.65l5.44-38.77Z"/><path class="cls-1" d="m293.55.82h1.65l-5.44,38.77h-1.65l5.44-38.77Zm3.3,0h1.65l-5.44,38.77h-1.65l5.44-38.77Zm3.68,8.96l-4.18,29.81h-1.65l5.44-38.77h2.03l14.41,35.36.44-3.19L304.21.82h1.81l11.49,28.76,4.07-28.76h1.65l-5.44,38.77h-1.65l-14.79-35.8-.39,2.8,13.47,33h-1.92l-11.99-29.81Zm24.36-8.96h1.65l-5.44,38.77h-1.65l5.44-38.77Zm3.3,0h1.65l-5.44,38.77h-1.65l5.44-38.77Z"/><path class="cls-1" d="m365.48,24.75h-1.65l-1.76,12.87-1.76.82c-2.81,1.26-5.88,1.98-9.02,1.98-11.16,0-18.92-9.02-17.32-20.18S345.85,0,357.01,0c5.66,0,10.45,2.36,13.58,6.1l-1.26,1.21c-2.86-3.46-7.37-5.66-12.59-5.66-10.28,0-19.69,8.3-21.12,18.59-1.43,10.28,5.66,18.53,15.95,18.53,3.13,0,6.16-.77,8.96-2.15l.27-1.87c-2.75,1.48-5.83,2.36-9.02,2.36-9.35,0-15.84-7.53-14.52-16.88s9.9-16.94,19.25-16.94c4.84,0,8.91,2.03,11.55,5.28l-1.27,1.26c-2.42-3.02-6.1-4.89-10.5-4.89-8.41,0-16.22,6.87-17.38,15.29-1.21,8.41,4.67,15.23,13.09,15.23,3.19,0,6.38-.99,9.07-2.69l.28-2.03c-2.64,1.92-5.83,3.08-9.13,3.08-7.53,0-12.7-6.05-11.66-13.58s7.97-13.64,15.51-13.64c3.96,0,7.26,1.7,9.4,4.4l-1.26,1.38c-1.82-2.53-4.84-4.12-8.41-4.12-6.6,0-12.7,5.39-13.64,11.99s3.63,11.93,10.23,11.93c3.41,0,6.76-1.43,9.29-3.74l.5-3.68h-7.42l.27-1.65h15.67l-2.04,14.52h-1.65l1.76-12.87h-1.65l-1.76,12.87h-1.65l1.76-12.87Zm-10.23-3.3l.22-1.65h15.67l-.22,1.65h-15.67Zm.44-3.3l.27-1.65h15.67l-.28,1.65h-15.67Z"/><path class="cls-1" d="m402.88,9.07h-1.65l-4.29,30.52h-1.65l4.29-30.52h-1.65l-4.29,30.52h-1.65l4.51-32.17h26.4l-.22,1.65h-18.15l-.94,6.6h16.5l-.27,1.65h-16.5l-.22,1.65h16.5l-.22,1.65h-16.5l-.22,1.65h16.5l-.22,1.65h-16.5l-2.2,15.67h-1.65l4.29-30.52Zm-5.94-4.95h26.4l-.22,1.65h-26.4l.22-1.65Zm.49-3.3h26.4l-.27,1.65h-26.4l.27-1.65Z"/><path class="cls-1" d="m430.05.82h1.65l-5.44,38.77h-1.65l5.44-38.77Zm3.3,0h1.65l-5.44,38.77h-1.65l5.44-38.77Zm3.3,0h1.65l-5.44,38.77h-1.65l5.44-38.77Z"/><path class="cls-1" d="m446.33.82h1.65l-5.44,38.77h-1.65l5.44-38.77Zm3.3,0h1.65l-5.44,38.77h-1.65l5.44-38.77Zm3.68,8.96l-4.18,29.81h-1.65l5.44-38.77h2.03l14.41,35.36.44-3.19L457,.82h1.81l11.49,28.76,4.07-28.76h1.65l-5.44,38.77h-1.65l-14.79-35.8-.38,2.8,13.47,33h-1.92l-11.99-29.81Zm24.36-8.96h1.65l-5.44,38.77h-1.65l5.44-38.77Zm3.3,0h1.65l-5.44,38.77h-1.65l5.44-38.77Z"/><path class="cls-1" d="m491.16.82h1.65l-5.44,38.77h-1.65l5.44-38.77Zm3.3,0h1.65l-5.44,38.77h-1.65l5.44-38.77Zm3.68,8.96l-4.18,29.81h-1.65l5.44-38.77h2.03l14.41,35.36.44-3.19L501.83.82h1.81l11.49,28.76,4.07-28.76h1.65l-5.44,38.77h-1.65l-14.79-35.8-.38,2.8,13.47,33h-1.92l-11.99-29.81Zm24.36-8.96h1.65l-5.44,38.77h-1.65l5.44-38.77Zm3.3,0h1.65l-5.44,38.77h-1.65l5.44-38.77Z"/></g></svg>